# xmcd
#
# Track frame offsets:
# 150
# 18167
# 38953
# 56884
# 77109
# 95747
# 117297
# 136002
# 155708
# 172019
# 191680
# 214725
# 233841
# 252411
# 269502
#
# Disc length: 3677 seconds
#
#
# Revision: 0
# Processed by: cddbd v1.5.1PL2 Copyright (c) Steve Scherf et al.
# Submitted via: FreeRIP 2.91 
#
DISCID=d80e5b0f
DTITLE=ZEZÉ DI CAMARGO and LUCIANO - ao vivo cd2
DYEAR=1900
DGENRE=Sertanejo
TTITLE0=Irresistível
TTITLE1=Cada Volta É Um Recomeço
TTITLE2=Você Vai Ver
TTITLE3=Será Que Foi Saudade?
TTITLE4=Coiração Esta Em Pedaços
TTITLE5=Felicidade Que Saudade De Você
TTITLE6=Menina Veneno
TTITLE7=Amor Selvagem
TTITLE8=Salva Meu Coração
TTITLE9=Saudade Bandida
TTITLE10=Pra Não Pensar Em Você
TTITLE11=Vem Cuidar De Mim
TTITLE12=Toma Juízo
TTITLE13=Mexe Que É Bom
TTITLE14=Encerramento
EXTD=
EXTT0=
EXTT1=
EXTT2=
EXTT3=
EXTT4=
EXTT5=
EXTT6=
EXTT7=
EXTT8=
EXTT9=
EXTT10=
EXTT11=
EXTT12=
EXTT13=
EXTT14=
PLAYORDER=
